HIERARCHY
ROOT joint_Root
{
	OFFSET 0.0 0.0 0.0
	CHANNELS 6 Xposition Yposition Zposition Zrotation Xrotation Yrotation 
	JOINT Hips
	{
		OFFSET 4.5925 91.4895 -427.239
		CHANNELS 6 Xposition Yposition Zposition Zrotation Xrotation Yrotation 
		JOINT Spine
		{
			OFFSET 15.7357 0.0 0.0
			CHANNELS 6 Xposition Yposition Zposition Zrotation Xrotation Yrotation 
			JOINT Chest
			{
				OFFSET 8.98455 -0.406207 0.0
				CHANNELS 6 Xposition Yposition Zposition Zrotation Xrotation Yrotation 
				JOINT Neck
				{
					OFFSET 16.3773 0.0 0.0
					CHANNELS 6 Xposition Yposition Zposition Zrotation Xrotation Yrotation 
					JOINT Head
					{
						OFFSET 6.45672 0.0 0.0
						CHANNELS 6 Xposition Yposition Zposition Zrotation Xrotation Yrotation 
						End Site
						{
							OFFSET 0.0 0.0 0.0
						}
					}
				}
				JOINT Shoulder_L
				{
					OFFSET 12.9942 -0.242716 4.98039
					CHANNELS 6 Xposition Yposition Zposition Zrotation Xrotation Yrotation 
					JOINT UpperArm_L
					{
						OFFSET 5.34809 0.0 0.0
						CHANNELS 6 Xposition Yposition Zposition Zrotation Xrotation Yrotation 
						JOINT LowerArm_L
						{
							OFFSET 24.3286 1.87007e-05 0.0
							CHANNELS 6 Xposition Yposition Zposition Zrotation Xrotation Yrotation 
							JOINT Hand_L
							{
								OFFSET 22.2916 0.0 0.0
								CHANNELS 6 Xposition Yposition Zposition Zrotation Xrotation Yrotation 
								End Site
								{
									OFFSET 0.0 0.0 0.0
								}
							}
						}
					}
				}
				JOINT Shoulder_R
				{
					OFFSET 12.9945 -0.242716 -4.98039
					CHANNELS 6 Xposition Yposition Zposition Zrotation Xrotation Yrotation 
					JOINT UpperArm_R
					{
						OFFSET -5.34813 0.0 0.0
						CHANNELS 6 Xposition Yposition Zposition Zrotation Xrotation Yrotation 
						JOINT LowerArm_R
						{
							OFFSET -24.3289 0.000322201 0.0
							CHANNELS 6 Xposition Yposition Zposition Zrotation Xrotation Yrotation 
							JOINT Hand_R
							{
								OFFSET -22.2915 -0.000108084 0.0
								CHANNELS 6 Xposition Yposition Zposition Zrotation Xrotation Yrotation 
								End Site
								{
									OFFSET 0.0 0.0 0.0
								}
							}
						}
					}
				}
			}
		}
		JOINT UpperLeg_L
		{
			OFFSET -2.19248 -6.46944 0.0
			CHANNELS 6 Xposition Yposition Zposition Zrotation Xrotation Yrotation 
			JOINT LowerLeg_L
			{
				OFFSET 39.0811 0.0 -1.23785e-05
				CHANNELS 6 Xposition Yposition Zposition Zrotation Xrotation Yrotation 
				JOINT Foot_L
				{
					OFFSET 40.9854 0.0 -1.26872e-05
					CHANNELS 6 Xposition Yposition Zposition Zrotation Xrotation Yrotation 
					JOINT Toes_L
					{
						OFFSET 11.7543 0.0 0.0
						CHANNELS 6 Xposition Yposition Zposition Zrotation Xrotation Yrotation 
						End Site
						{
							OFFSET 0.0 0.0 0.0
						}
					}
				}
			}
		}
		JOINT UpperLeg_R
		{
			OFFSET -2.19251 6.46944 0.0
			CHANNELS 6 Xposition Yposition Zposition Zrotation Xrotation Yrotation 
			JOINT LowerLeg_R
			{
				OFFSET -39.0811 -0.00228153 -0.0401928
				CHANNELS 6 Xposition Yposition Zposition Zrotation Xrotation Yrotation 
				JOINT Foot_R
				{
					OFFSET -40.9854 0.0 0.0
					CHANNELS 6 Xposition Yposition Zposition Zrotation Xrotation Yrotation 
					JOINT Toes_R
					{
						OFFSET -11.7543 0.0 0.0
						CHANNELS 6 Xposition Yposition Zposition Zrotation Xrotation Yrotation 
						End Site
						{
							OFFSET 0.0 0.0 0.0
						}
					}
				}
			}
		}
	}
}
MOTION
Frames:	6
Frame Time:	0.0333333
0.000000 0.000000 0.000000 0.000000 0.000000 -0.000000 2.167160 90.243200 1.831300 89.072900 -7.675700 13.116200 15.735700 0.000005 -0.000001 93.181400 82.921000 -95.624900 8.984550 -0.406207 -0.000000 6.392700 0.812581 -4.926940 16.377300 -0.000001 -0.000001 30.898900 -0.797209 3.467030 6.456720 -0.000001 -0.000000 14.732500 -2.220580 -11.131700 12.994200 -0.242716 4.980390 -91.605000 5.007400 -72.202100 5.348090 -0.000007 -0.000001 -61.351000 37.412000 -13.028400 24.328600 0.000019 0.000005 7.905910 22.895000 -19.643600 22.291600 -0.000001 0.000005 9.441310 5.330510 -0.800471 12.994500 -0.242716 -4.980390 90.696800 -2.435930 -74.030500 -5.348130 -0.000001 -0.000004 -58.586800 -49.386900 -77.526600 -24.328900 0.000322 -0.000009 3.344220 1.490670 -66.011300 -22.291500 -0.000108 -0.000004 23.967600 5.487270 -6.029080 -2.192480 -6.469440 -0.000000 -174.406000 -15.829400 4.481240 39.081100 -0.000007 -0.000012 -0.141052 0.221352 32.506700 40.985400 -0.000006 -0.000013 1.670860 3.503670 -73.501100 11.754300 -0.000000 0.000003 -0.000121 -0.001209 -16.623800 -2.192510 6.469440 -0.000001 171.037000 17.732300 -174.683000 -39.081100 -0.002282 -0.040193 -0.242163 0.408037 31.030200 -40.985400 0.000008 0.000006 1.629930 15.583900 -72.109600 -11.754300 -0.000006 -0.000006 -0.002943 -0.039958 -18.198100
0.000000 0.000000 0.000000 0.000000 0.000000 -0.000000 2.231650 90.251300 1.848730 89.012000 -8.031730 13.025200 15.735700 0.000005 -0.000001 92.881600 82.882400 -95.300800 8.984550 -0.406207 -0.000000 6.471930 0.740684 -4.875070 16.377300 -0.000001 -0.000001 30.871400 -0.888539 3.541080 6.456720 -0.000001 -0.000000 14.809700 -2.334770 -10.999200 12.994200 -0.242716 4.980390 -91.590400 4.949520 -72.161200 5.348090 -0.000007 -0.000001 -61.633300 37.430800 -12.645500 24.328600 0.000019 0.000005 7.739400 23.083100 -19.118200 22.291600 -0.000001 0.000005 9.406760 5.330100 -0.788586 12.994500 -0.242716 -4.980390 90.689200 -2.402480 -73.989000 -5.348130 -0.000001 -0.000004 -58.895100 -49.465600 -77.886500 -24.328900 0.000322 -0.000009 3.396170 1.510770 -66.054900 -22.291500 -0.000108 -0.000004 23.964000 5.485720 -5.968870 -2.192480 -6.469440 -0.000000 -174.344000 -16.097000 4.476900 39.081100 -0.000007 -0.000012 -0.141816 0.222887 32.467600 40.985400 -0.000006 -0.000013 1.685080 3.425390 -73.524500 11.754300 -0.000000 0.000003 -0.000132 -0.001306 -16.627300 -2.192510 6.469440 -0.000001 171.127000 17.563800 -174.808000 -39.081100 -0.002282 -0.040193 -0.240106 0.405639 30.966500 -40.985400 0.000008 0.000006 1.623520 15.754800 -72.034500 -11.754300 -0.000006 -0.000006 -0.002992 -0.040513 -18.220700
0.000000 0.000000 0.000000 0.000000 0.000000 -0.000000 2.288300 90.261500 1.855440 88.961100 -8.326700 12.894900 15.735700 0.000005 -0.000001 92.585800 82.871800 -94.985900 8.984550 -0.406207 -0.000000 6.494790 0.667750 -4.832900 16.377300 -0.000001 -0.000001 30.890900 -0.959462 3.624310 6.456720 -0.000001 -0.000000 14.885900 -2.436340 -10.885700 12.994200 -0.242716 4.980390 -91.568600 4.875940 -72.142900 5.348090 -0.000007 -0.000001 -61.875300 37.402400 -12.282600 24.328600 0.000019 0.000005 7.671700 23.453600 -18.697900 22.291600 -0.000001 0.000005 9.248520 5.328120 -0.730948 12.994500 -0.242716 -4.980390 90.685800 -2.377180 -73.902900 -5.348130 -0.000001 -0.000004 -59.166100 -49.443400 -78.132000 -24.328900 0.000322 -0.000009 3.387070 1.500980 -66.135900 -22.291500 -0.000108 -0.000004 23.963000 5.485590 -5.964190 -2.192480 -6.469440 -0.000000 -174.344000 -16.246300 4.397760 39.081100 -0.000007 -0.000012 -0.139204 0.219101 32.429800 40.985400 -0.000006 -0.000013 1.672700 3.275160 -73.526900 11.754300 -0.000000 0.000003 -0.000120 -0.001205 -16.623600 -2.192510 6.469440 -0.000001 171.211000 17.468700 -174.962000 -39.081100 -0.002282 -0.040193 -0.235962 0.399745 30.902500 -40.985400 0.000008 0.000006 1.622260 15.911600 -71.962100 -11.754300 -0.000006 -0.000006 -0.002792 -0.038226 -18.127700
0.000000 0.000000 0.000000 0.000000 0.000000 -0.000000 2.330470 90.269900 1.876250 88.917800 -8.553060 12.757900 15.735700 0.000005 -0.000001 92.321800 82.879000 -94.707800 8.984550 -0.406207 -0.000000 6.481500 0.601868 -4.800830 16.377300 -0.000001 -0.000001 30.960400 -0.995024 3.692860 6.456720 -0.000001 -0.000000 14.921000 -2.485520 -10.764700 12.994200 -0.242716 4.980390 -91.545500 4.809270 -72.161400 5.348090 -0.000007 -0.000001 -62.045800 37.282800 -11.950700 24.328600 0.000019 0.000005 7.575540 23.614700 -18.366100 22.291600 -0.000001 0.000005 9.193520 5.328800 -0.750484 12.994500 -0.242716 -4.980390 90.682900 -2.360330 -73.858300 -5.348130 -0.000001 -0.000004 -59.355500 -49.471300 -78.213300 -24.328900 0.000322 -0.000009 3.354520 1.479200 -66.240500 -22.291500 -0.000108 -0.000004 23.900700 5.485150 -5.946680 -2.192480 -6.469440 -0.000000 -174.342000 -16.372300 4.320710 39.081100 -0.000007 -0.000012 -0.140404 0.221334 32.389400 40.985400 -0.000006 -0.000013 1.670370 3.185580 -73.537300 11.754300 -0.000000 0.000003 -0.000119 -0.001194 -16.623200 -2.192510 6.469440 -0.000001 171.275000 17.444400 -175.108000 -39.081100 -0.002282 -0.040193 -0.231215 0.392659 30.848100 -40.985400 0.000008 0.000006 1.632360 16.073100 -71.906700 -11.754300 -0.000006 -0.000006 -0.002766 -0.037925 -18.115400
0.000000 0.000000 0.000000 0.000000 0.000000 -0.000000 2.373300 90.275500 1.905450 88.861000 -8.736020 12.677100 15.735700 0.000005 -0.000001 92.197500 82.881000 -94.562400 8.984550 -0.406207 -0.000000 6.477890 0.570777 -4.756870 16.377300 -0.000001 -0.000001 31.024600 -1.041690 3.751920 6.456720 -0.000001 -0.000000 14.926500 -2.539620 -10.682500 12.994200 -0.242716 4.980390 -91.530800 4.774640 -72.200700 5.348090 -0.000007 -0.000001 -62.067900 37.199600 -11.741300 24.328600 0.000019 0.000005 7.492890 23.665200 -18.142600 22.291600 -0.000001 0.000005 9.254370 5.325570 -0.656733 12.994500 -0.242716 -4.980390 90.677300 -2.337900 -73.837600 -5.348130 -0.000001 -0.000004 -59.314700 -49.535700 -78.106000 -24.328900 0.000322 -0.000009 3.266910 1.434580 -66.327200 -22.291500 -0.000108 -0.000004 23.897700 5.485180 -5.948170 -2.192480 -6.469440 -0.000000 -174.312000 -16.489200 4.311980 39.081100 -0.000007 -0.000012 -0.139047 0.219469 32.356900 40.985400 -0.000006 -0.000013 1.673630 3.107670 -73.565500 11.754300 -0.000000 0.000003 -0.000127 -0.001258 -16.625600 -2.192510 6.469440 -0.000001 171.312000 17.455800 -175.157000 -39.081100 -0.002282 -0.040193 -0.225475 0.384101 30.778900 -40.985400 0.000008 0.000006 1.642350 16.252300 -71.865400 -11.754300 -0.000006 -0.000006 -0.002634 -0.036395 -18.053100
0.000000 0.000000 0.000000 0.000000 0.000000 -0.000000 2.398980 90.277700 1.954240 88.841100 -8.869740 12.634500 15.735700 0.000005 -0.000001 92.099900 82.879000 -94.452200 8.984550 -0.406207 -0.000000 6.482320 0.546528 -4.730390 16.377300 -0.000001 -0.000001 31.013300 -1.069380 3.763180 6.456720 -0.000001 -0.000000 14.951600 -2.600270 -10.672000 12.994200 -0.242716 4.980390 -91.524900 4.755480 -72.197800 5.348090 -0.000007 -0.000001 -61.995000 37.027800 -11.669000 24.328600 0.000019 0.000005 7.460370 23.777300 -17.993100 22.291600 -0.000001 0.000005 9.303800 5.324520 -0.626144 12.994500 -0.242716 -4.980390 90.671800 -2.315020 -73.813200 -5.348130 -0.000001 -0.000004 -59.235300 -49.590100 -77.982700 -24.328900 0.000322 -0.000009 3.348270 1.468270 -66.357500 -22.291500 -0.000108 -0.000004 23.891600 5.484130 -5.907320 -2.192480 -6.469440 -0.000000 -174.296000 -16.589900 4.342950 39.081100 -0.000007 -0.000012 -0.139205 0.220049 32.318000 40.985400 -0.000006 -0.000013 1.677450 3.070060 -73.591600 11.754300 -0.000000 0.000003 -0.000131 -0.001298 -16.627100 -2.192510 6.469440 -0.000001 171.271000 17.513100 -175.145000 -39.081100 -0.002282 -0.040193 -0.231009 0.394245 30.724400 -40.985400 0.000008 0.000006 1.660700 16.449000 -71.857300 -11.754300 -0.000006 -0.000006 -0.002964 -0.040194 -18.207700
